<?xml version="1.0" encoding="UTF-8"?>
<svg width="64" height="64" viewBox="0 0 64 64" xmlns="http://www.w3.org/2000/svg" role="img" aria-label="chat icon">
  <defs>
    <linearGradient id="g" x1="0" x2="1" y1="0" y2="1">
      <stop offset="0%" stop-color="#2b6f6a"/>
      <stop offset="100%" stop-color="#1b5a57"/>
    </linearGradient>
  </defs>
  <rect width="64" height="64" rx="12" fill="url(#g)" />
  <g transform="translate(12,14)" fill="#fff">
    <path d="M28 4c-7.732 0-14 4.477-14 10 0 2.092.8 4.02 2.14 5.58L8 28l7.66-4.6C17.21 24.6 17.6 24.72 18 24.72 25.732 24.72 32 20.243 32 14.72 32 9.197 25.732 4 18 4z" opacity="0.06"/>
    <path d="M26 6c-6.627 0-12 3.582-12 8s5.373 8 12 8c.647 0 1.285-.04 1.91-.12L34 30l-4.09-6.04C30.27 24.2 28.17 26 26 26c-6.627 0-12-3.582-12-8s5.373-8 12-8 12 3.582 12 8c0 .48-.04.95-.12 1.41L36 22.5 26 6z" fill="#fff" opacity="0.06"/>
    <circle cx="7" cy="12" r="2.2" fill="#fff"/>
    <circle cx="14" cy="12" r="2.2" fill="#fff"/>
    <circle cx="21" cy="12" r="2.2" fill="#fff"/>
  </g>
</svg>
